<svg width="96" height="96" xmlns="http://www.w3.org/2000/svg" xmlns:xlink="http://www.w3.org/1999/xlink" xml:space="preserve" overflow="hidden"><g transform="translate(-451 -118)"><path d="M481 133C481 136.866 477.866 140 474 140 470.134 140 467 136.866 467 133 467 129.134 470.134 126 474 126 477.866 126 481 129.134 481 133Z" fill="#F68B1F"/><path d="M511 133C511 136.866 507.866 140 504 140 500.134 140 497 136.866 497 133 497 129.134 500.134 126 504 126 507.866 126 511 129.134 511 133Z" fill="#F68B1F"/><path d="M536 174C536 176.761 533.761 179 531 179 528.239 179 526 176.761 526 174 526 171.239 528.239 169 531 169 533.761 169 536 171.239 536 174Z" fill="#F68B1F"/><path d="M541.8 192.2 538.3 183.8C537.1 182.1 535.2 180.8 533.1 180.2 532.5 180.1 531.7 180 531 180L526 180 521.8 172.9C521.9 172.4 522 171.9 521.9 171.4L517.2 147.8C515.3 145.7 512.9 144.1 510.1 143.1 508.2 142.4 506.1 142 503.9 142 501.7 142 499.7 142.4 497.7 143.1 495 144.1 492.6 145.7 490.6 147.8L489 156.7 487.2 147.8C485.3 145.7 482.9 144.1 480.1 143.1 478.2 142.4 476.1 142 473.9 142 471.7 142 469.7 142.4 467.7 143.1 465 144.1 462.6 145.7 460.6 147.8L456.1 171.4C455.8 173 456.8 174.6 458.5 174.9 458.6 175 458.8 175 459 175 460.4 175 461.7 174 461.9 172.6L466 152.3 466 206 472 206 472 175 476 175 476 206 482 206 482 152.3 486.1 172.6C486.3 174 487.6 175 489 175L489 175C490.4 175 491.7 174 491.9 172.6L496 152.3 496 163.2 492.2 182.1 496 182.1 496 206 502 206 502 182 506 182 506 206 512 206 512 182.1 515.8 182.1 512 163.2 512 152.3 516.1 172.6C516.3 173.8 517.3 174.7 518.4 174.9L526 187.8 526 206 530 206 530 194 532 194 532 206 536 206 536 188.6 538.2 193.8C538.5 194.6 539.3 195 540 195 540.3 195 540.5 195 540.8 194.8 541.8 194.4 542.3 193.2 541.8 192.2Z" fill="#F68B1F"/></g></svg>