<svg width="96" height="96" xmlns="http://www.w3.org/2000/svg" xmlns:xlink="http://www.w3.org/1999/xlink" xml:space="preserve" overflow="hidden"><g transform="translate(-47 -119)"><path d="M131.2 161 122.7 161C120.4 163.2 118.9 166.9 118.9 170.1 118.9 175 122.5 179 126.9 179 131.3 179 134.9 175 134.9 170.1 135 166.9 133.5 163.2 131.2 161Z" fill="#F68B1F"/><path d="M125 149 129 149 130.3 146.4C130.6 145.7 130.1 145 129.4 145L124.6 145C123.9 145 123.4 145.8 123.7 146.4L125 149Z" fill="#F68B1F"/><path d="M132 155C132 152.8 130.2 151 128 151L119.2 151 104.3 141.6C103.7 141.2 103 141 102.2 141L85.2 141C83.7 141 82.4 141.8 81.7 143.1L75.2 155.1C74.1 157 74.9 159.5 76.8 160.5 77.4 160.8 78.1 161 78.7 161 80.1 161 81.5 160.2 82.2 158.9L87.6 149 93.5 149 75.8 182 59.2 182C57 182 55.2 183.8 55.2 186 55.2 188.2 57 190 59.2 190L78.2 190C79.7 190 81 189.2 81.7 187.9L88.6 175.1 102 189.3 99.3 205.3C98.9 207.5 100.4 209.5 102.6 209.9 102.8 209.9 103 210 103.3 210 105.2 210 106.9 208.6 107.2 206.7L110.2 188.7C110.4 187.5 110 186.2 109.2 185.3L97.1 172.4 107.5 153 115.9 158.3C116.5 158.7 117.3 158.9 118 158.9L128 158.9C130.2 159 132 157.2 132 155Z" fill="#F68B1F"/><path d="M117.2 132C117.2 136.418 113.618 140 109.2 140 104.782 140 101.2 136.418 101.2 132 101.2 127.582 104.782 124 109.2 124 113.618 124 117.2 127.582 117.2 132Z" fill="#F68B1F"/></g></svg>