<svg width="96" height="96" xmlns="http://www.w3.org/2000/svg" xmlns:xlink="http://www.w3.org/1999/xlink" xml:space="preserve" overflow="hidden"><g transform="translate(-882 -418)"><path d="M930.056 449.816C937.496 449.817 943.527 443.786 943.528 436.346 943.529 428.906 937.498 422.875 930.058 422.874 922.618 422.873 916.587 428.904 916.586 436.344 916.586 436.345 916.586 436.345 916.586 436.346 916.587 443.785 922.617 449.815 930.056 449.816Z" fill="#F68B1F"/><path d="M956.959 466.038C956.744 464.156 955.787 462.439 954.3 461.266 950.395 458.275 945.929 456.098 941.167 454.866 937.565 453.763 933.82 453.196 930.053 453.182 928.157 453.193 926.265 453.357 924.395 453.672 924.323 453.681 924.252 453.694 924.18 453.705L924 453.734 924 453.734C923.774 453.771 923.548 453.805 923.323 453.856L920.005 454.575 918.82 454.9 918.82 454.914C914.159 456.286 909.761 458.432 905.812 461.263 905.142 461.802 904.571 462.455 904.126 463.191 904.118 463.204 904.111 463.219 904.103 463.232 904.003 463.4 903.903 463.569 903.817 463.744 903.715 463.948 903.624 464.158 903.544 464.372 903.494 464.506 903.456 464.643 903.415 464.778 903.394 464.849 903.367 464.916 903.348 464.988L903.331 465.053C903.318 465.1 903.305 465.147 903.293 465.194L894.221 499.462C893.254 502.919 895.272 506.506 898.729 507.473 902.186 508.44 905.773 506.422 906.74 502.965 906.757 502.906 906.772 502.847 906.787 502.788L911.945 483.3C911.947 483.286 911.96 483.276 911.974 483.277 911.989 483.279 911.999 483.293 911.997 483.307L911.997 509.125 948 509.125 948 494.739C953.281 493.294 956.958 488.514 957 483.039L957 466.654ZM923 483.04C923 482.821 923.013 482.602 923.038 482.384 923.344 479.112 925.619 476.361 928.774 475.445L921.21 457.416 923.991 456.787C924.393 456.699 924.801 456.641 925.211 456.611L932.975 475.125 954 475.125 954 483.04C954 487.85 949.989 492.069 945.414 492.069L923 492.069Z" fill="#F68B1F"/></g></svg>