<svg width="96" height="96" xmlns="http://www.w3.org/2000/svg" xmlns:xlink="http://www.w3.org/1999/xlink" xml:space="preserve" overflow="hidden"><g transform="translate(-908 -426)"><path d="M940.4 476.9C935.8 478.5 931.5 480.4 927.8 483.4 925.4 485.3 924.1 488 924 491L924 508.6 924.9 509.2C929.6 512.4 942.2 514 955 514.1L955 484.5 949.1 490.6 940.4 476.9Z" fill="#F68B1F"/><path d="M988 491C987.9 488.1 986.6 485.3 984.3 483.5 980.6 480.5 976.2 478.6 971.7 476.9L963 490.6 957 484.5 957 514.1C970.1 514 982.9 512.4 987.2 509.1L988 508.5 988 491ZM979.4 495.3C979.4 498.8 975.3 500 975.3 500 975.3 500 971.2 498.8 971.2 495.3 971.2 493.9 971.6 493.9 971.6 492.7 971.5 492.2 971.3 491.8 971 491.4L972.4 490C972.8 490.4 973.3 490.6 973.8 490.6 974.3 490.6 974.8 490.4 975.2 490.1 975.6 490.4 976.1 490.6 976.6 490.6 977.1 490.6 977.6 490.4 978 490L979.4 491.4C979.1 491.8 978.9 492.2 978.8 492.7 979 493.8 979.4 493.8 979.4 495.3Z" fill="#F68B1F"/><path d="M976.6 437.4C973.4 436.7 970.3 435.9 967.3 434.8 965 434 959.5 431.3 957.2 430.1 956.5 429.7 955.6 429.7 954.9 430.1 952.6 431.3 947 434 944.8 434.9 941.7 436 938.6 436.8 935.4 437.5 934.1 437.8 933.3 439.1 933.6 440.4 933.7 440.8 933.9 441.3 934.2 441.6L938.2 445.6 938.2 446.9C938.2 448.3 938.9 449.6 940 450.4L940 459C940 464.1 942.4 468.9 946.5 471.9L942.2 476.2 949.4 487.5 955 481.7 955 481.5 948 473C952.9 475.8 959 475.8 963.9 473L957 481.4 957 481.6 962.6 487.4 969.8 476.1 965.5 471.8C969.6 468.8 972 464 972 458.9L972 450.1C973.1 449.3 973.8 448 973.8 446.6L973.8 445.4 977.8 441.4C978.7 440.5 978.7 438.9 977.8 438 977.4 437.8 977 437.5 976.6 437.4ZM959.6 441.7C959.6 444.8 956 445.8 956 445.8 956 445.8 952.4 444.8 952.4 441.7 952.4 440.4 952.8 440.4 952.8 439.4 952.7 439 952.6 438.6 952.3 438.3L953.6 437C953.9 437.3 954.4 437.5 954.9 437.5 955.4 437.5 955.8 437.3 956.2 437 956.6 437.3 957 437.5 957.5 437.5 958 437.5 958.4 437.3 958.7 437L960 438.3C959.7 438.6 959.6 439 959.5 439.4 959.3 440.4 959.6 440.4 959.6 441.7ZM944 459 944 452.8C951.5 456.8 960.5 456.7 968 452.7L968 459C968 465.6 962.6 471 956 471 949.4 471 944 465.6 944 459Z" fill="#F68B1F"/></g></svg>